<?xml version="1.0" encoding="utf-8"?>
<!-- Generator: Adobe Illustrator 19.0.0, SVG Export Plug-In . SVG Version: 6.00 Build 0)  -->
<svg version="1.1" id="Capa_1" xmlns="http://www.w3.org/2000/svg" xmlns:xlink="http://www.w3.org/1999/xlink" x="0px" y="0px"
	 viewBox="-261 262.1 476.9 476.9" style="enable-background:new -261 262.1 476.9 476.9;" xml:space="preserve">
<style type="text/css">
	.st0{fill:#FFFFFF;}
</style>
<g>
	<g>
		<path class="st0" d="M200.8,471.5L-11.4,266.6c-6.2-6-16-6-22.2,0l-212.2,204.9c-3.1,3-4.9,7.2-4.9,11.5c0,8.8,7.2,16,16,16h28.2
			v224c0,8.8,7.2,16,16,16h112c8.8,0,16-7.2,16-16V595h80v128c0,8.8,7.2,16,16,16h112c8.8,0,16-7.2,16-16V499h28.2
			c4.3,0,8.5-1.8,11.5-4.9C207.3,487.8,207.1,477.6,200.8,471.5z M161.5,483c-8.8,0-16,7.2-16,16v224h-112V595c0-8.8-7.2-16-16-16
			h-80c-8.8,0-16,7.2-16,16v128h-112V499c0-8.8-7.2-16-16-16h-28.2l212.2-204.9L189.7,483H161.5z"/>
		<path class="st0" d="M189.7,483h-28.3c-8.8,0-16,7.2-16,16v224h-112V595c0-8.8-7.2-16-16-16h-80c-8.8,0-16,7.2-16,16v128h-112V499
			c0-8.8-7.2-16-16-16h-28.2l212.2-204.9L189.7,483z"/>
	</g>
</g>
</svg>
