<?xml version="1.0" encoding="utf-8"?>
<!-- Generator: Adobe Illustrator 19.0.0, SVG Export Plug-In . SVG Version: 6.00 Build 0)  -->
<svg version="1.1" id="Layer_1" xmlns="http://www.w3.org/2000/svg" xmlns:xlink="http://www.w3.org/1999/xlink" x="0px" y="0px"
	 viewBox="-243 245 512 512" style="enable-background:new -243 245 512 512;" xml:space="preserve">
<style type="text/css">
	.st0{fill:#FFFFFF;}
</style>
<g>
	<g>
		<path class="st0" d="M265.9,738.8L110.1,583c32.4-35.9,52.2-83.3,52.2-135.3C162.3,335.9,71.4,245-40.3,245S-243,335.9-243,447.7
			s90.9,202.7,202.7,202.7c52,0,99.4-19.9,135.3-52.2l155.8,155.8c2.1,2.1,4.8,3.1,7.5,3.1s5.5-1,7.5-3.1
			C270,749.7,270,743,265.9,738.8z M-40.3,629c-100,0-181.3-81.3-181.3-181.3s81.4-181.3,181.3-181.3S141,347.7,141,447.7
			S59.6,629-40.3,629z"/>
	</g>
</g>
</svg>
